<svg width="29" height="32" viewBox="0 0 29 32" fill="none" xmlns="http://www.w3.org/2000/svg">
<path fill-rule="evenodd" clip-rule="evenodd" d="M13.2721 0.218187C13.7755 -0.0720982 14.3953 -0.0720982 14.8979 0.218187C17.3851 1.65285 24.8696 5.97131 27.3575 7.40597C27.8609 7.69549 28.1708 8.23187 28.1708 8.81244C28.1708 11.6818 28.1708 20.3179 28.1708 23.1872C28.1708 23.7678 27.8609 24.3042 27.3575 24.5945C24.8704 26.0291 17.3858 30.3476 14.8979 31.7823C14.3945 32.0726 13.7748 32.0726 13.2721 31.7823C10.785 30.3476 3.30043 26.0291 0.812505 24.5945C0.309879 24.3042 0 23.7686 0 23.188C0 20.3187 0 11.6825 0 8.8132C0 8.23264 0.309879 7.69626 0.813246 7.40597C3.29969 5.97131 10.7857 1.65285 13.2721 0.218187Z" fill="#895A3B"/>
<path fill-rule="evenodd" clip-rule="evenodd" d="M0.225366 23.927C0.0281708 23.6557 0 23.3982 0 23.0516C0 20.199 0 11.6124 0 8.75904C0 8.18152 0.309137 7.64819 0.811022 7.36019C3.28931 5.93391 10.7486 1.64059 13.2269 0.213547C13.7288 -0.0752137 14.4086 -0.0691185 14.9105 0.219642C17.3888 1.64592 24.8229 5.90267 27.3012 7.32895C27.5014 7.44476 27.6541 7.58419 27.7905 7.76781L0.225366 23.927Z" fill="#C5A996"/>
<path fill-rule="evenodd" clip-rule="evenodd" d="M14.0854 5.33353C19.8137 5.33353 24.4641 10.1129 24.4641 16.0002C24.4641 21.8874 19.8137 26.6668 14.0854 26.6668C8.35707 26.6668 3.70667 21.8874 3.70667 16.0002C3.70667 10.1129 8.35707 5.33353 14.0854 5.33353ZM14.0854 10.6668C16.9492 10.6668 19.2747 13.0562 19.2747 16.0002C19.2747 18.9434 16.9492 21.3335 14.0854 21.3335C11.2216 21.3335 8.89602 18.9434 8.89602 16.0002C8.89602 13.0562 11.2209 10.6668 14.0854 10.6668Z" fill="white"/>
<path fill-rule="evenodd" clip-rule="evenodd" d="M27.789 7.77542C28.1715 8.14342 28.1641 8.69808 28.1641 9.13465C28.1641 12.0261 28.1404 20.25 28.1708 23.1415C28.1738 23.4432 28.0766 23.7609 27.9313 24.0001L13.7837 16.0002L27.789 7.77542Z" fill="#A77F65"/>
<path d="M22.0884 16.9941C22.0884 17.0441 22.0884 17.0829 22.0884 17.1301C21.7369 17.1301 21.3943 17.1301 21.0389 17.1301C21.0389 16.7856 21.0389 16.442 21.0389 16.0876C20.6865 16.0876 20.3465 16.0876 20 16.0876C20 15.7363 20 15.3958 20 15.0423C20.3413 15.0423 20.6845 15.0423 21.037 15.0423C21.037 14.6891 21.037 14.3488 21.037 14C21.389 14 21.7316 14 22.0845 14C22.0845 14.3448 22.0845 14.6853 22.0845 15.0379C22.438 15.0379 22.7815 15.0379 23.1301 15.0379C23.1301 15.3904 23.1301 15.7307 23.1301 16.0859C22.7857 16.0859 22.4429 16.0859 22.0884 16.0859C22.0884 16.3948 22.0884 16.6889 22.0884 16.9941Z" fill="white"/>
<path d="M26.0884 16.9941C26.0884 17.0441 26.0884 17.0829 26.0884 17.1301C25.7369 17.1301 25.3943 17.1301 25.0389 17.1301C25.0389 16.7856 25.0389 16.442 25.0389 16.0876C24.6865 16.0876 24.3465 16.0876 24 16.0876C24 15.7363 24 15.3958 24 15.0423C24.3413 15.0423 24.6845 15.0423 25.037 15.0423C25.037 14.6891 25.037 14.3488 25.037 14C25.389 14 25.7316 14 26.0845 14C26.0845 14.3448 26.0845 14.6853 26.0845 15.0379C26.438 15.0379 26.7815 15.0379 27.1301 15.0379C27.1301 15.3904 27.1301 15.7307 27.1301 16.0859C26.7857 16.0859 26.4429 16.0859 26.0884 16.0859C26.0884 16.3948 26.0884 16.6889 26.0884 16.9941Z" fill="white"/>
</svg>
