<svg width="29" height="32" viewBox="0 0 29 32" fill="none" xmlns="http://www.w3.org/2000/svg">
<path fill-rule="evenodd" clip-rule="evenodd" d="M13.2722 0.218202C13.7755 -0.0720829 14.3953 -0.0720829 14.8979 0.218202C17.3851 1.65286 24.8696 5.97133 27.3576 7.40599C27.8609 7.69551 28.1708 8.23189 28.1708 8.81246C28.1708 11.6818 28.1708 20.3179 28.1708 23.1873C28.1708 23.7678 27.8609 24.3042 27.3576 24.5945C24.8704 26.0292 17.3858 30.3476 14.8979 31.7823C14.3945 32.0726 13.7748 32.0726 13.2722 31.7823C10.785 30.3476 3.30043 26.0292 0.812505 24.5945C0.309879 24.3042 0 23.7686 0 23.188C0 20.3187 0 11.6825 0 8.81322C0 8.23265 0.309879 7.69627 0.813246 7.40599C3.29969 5.97133 10.7857 1.65286 13.2722 0.218202Z" fill="#895A3B"/>
<path fill-rule="evenodd" clip-rule="evenodd" d="M0.225366 23.927C0.0281708 23.6558 0 23.3982 0 23.0516C0 20.199 0 11.6124 0 8.75904C0 8.18152 0.309137 7.64819 0.811022 7.36019C3.28931 5.93391 10.7486 1.64059 13.2269 0.213547C13.7288 -0.0752137 14.4086 -0.0691185 14.9105 0.219642C17.3888 1.64592 24.8229 5.90267 27.3012 7.32895C27.5014 7.44476 27.6541 7.58419 27.7905 7.76781L0.225366 23.927Z" fill="#C5A996"/>
<path fill-rule="evenodd" clip-rule="evenodd" d="M14.0854 5.33353C19.8137 5.33353 24.4641 10.1129 24.4641 16.0002C24.4641 21.8874 19.8137 26.6668 14.0854 26.6668C8.35709 26.6668 3.70668 21.8874 3.70668 16.0002C3.70668 10.1129 8.35709 5.33353 14.0854 5.33353ZM14.0854 10.6668C16.9492 10.6668 19.2748 13.0562 19.2748 16.0002C19.2748 18.9434 16.9492 21.3335 14.0854 21.3335C11.2216 21.3335 8.89604 18.9434 8.89604 16.0002C8.89604 13.0562 11.2209 10.6668 14.0854 10.6668Z" fill="white"/>
<path fill-rule="evenodd" clip-rule="evenodd" d="M27.789 7.77542C28.1715 8.14342 28.1641 8.69808 28.1641 9.13465C28.1641 12.0261 28.1404 20.25 28.1708 23.1415C28.1738 23.4432 28.0766 23.7609 27.9313 24.0001L13.7837 16.0002L27.789 7.77542Z" fill="#A87F65"/>
</svg>
