<svg width="22" height="32" viewBox="0 0 22 32" fill="none" xmlns="http://www.w3.org/2000/svg">
<path fill-rule="evenodd" clip-rule="evenodd" d="M9.7641 2.49027H6.11801C4.10433 2.49027 2.47192 4.13479 2.47192 6.16342C2.47192 8.19204 4.10433 9.83657 6.11801 9.83657H9.7641V2.49027ZM9.7641 0H12.236H15.8821C19.2611 0 22 2.75944 22 6.16342C22 8.17217 21.0463 9.9565 19.5699 11.0817C21.0463 12.2069 22 13.9913 22 16C22 19.404 19.2611 22.1634 15.8821 22.1634C14.5159 22.1634 13.2543 21.7123 12.236 20.9498V22.1634V25.8366C12.236 29.2405 9.49689 32 6.11801 32C2.73911 32 0 29.2405 0 25.8366C0 23.8277 0.953867 22.0435 2.4302 20.9183C0.953867 19.793 0 18.0087 0 16C0 13.9913 0.95389 12.2069 2.43025 11.0817C0.95389 9.9565 0 8.17217 0 6.16342C0 2.75944 2.73911 0 6.11801 0H9.7641ZM12.236 2.49027V9.83657H15.8821C17.8959 9.83657 19.5281 8.19204 19.5281 6.16342C19.5281 4.13479 17.8959 2.49027 15.8821 2.49027H12.236ZM6.11801 19.6731H9.7641V16.0095V16V15.9905V12.3269H6.11801C4.10433 12.3269 2.47192 13.9714 2.47192 16C2.47192 18.0238 4.09652 19.6653 6.10355 19.6731L6.11801 19.6731ZM2.47192 25.8366C2.47192 23.8127 4.09652 22.1713 6.10355 22.1634L6.11801 22.1634H9.7641V25.8366C9.7641 27.8652 8.13169 29.5097 6.11801 29.5097C4.10433 29.5097 2.47192 27.8652 2.47192 25.8366ZM12.236 15.9927C12.24 13.9674 13.8709 12.3269 15.8821 12.3269C17.8959 12.3269 19.5281 13.9714 19.5281 16C19.5281 18.0286 17.8959 19.6732 15.8821 19.6732C13.8709 19.6732 12.24 18.0326 12.236 16.0073V15.9927Z" fill="#5F3920"/>
</svg>
