<svg width="35" height="32" viewBox="0 0 35 32" fill="none" xmlns="http://www.w3.org/2000/svg">
<path fill-rule="evenodd" clip-rule="evenodd" d="M25.1068 2.04362C29.8747 4.76998 32.813 9.80511 32.813 15.2562C32.813 16.8482 32.5664 18.3842 32.1083 19.8274C32.4355 19.7866 32.7677 19.8233 33.0784 19.9344C33.3892 20.0455 33.6698 20.228 33.898 20.4674C34.2489 20.8255 34.4708 21.2913 34.5285 21.7907C34.5861 22.2902 34.4762 22.7947 34.2162 23.2241C34.5407 23.4881 34.7762 23.8401 34.8971 24.2353L34.9241 24.3345C35.0196 24.6897 35.115 25.4385 34.606 26.2001C34.9941 26.7921 35.0498 27.5377 34.7539 28.1777C34.3482 29.0896 33.3333 29.8064 31.3685 30.5776L31.0472 30.7024L30.8388 30.7792C30.0783 31.056 29.4229 31.2512 29.1508 31.3312L29.014 31.3696C27.5981 31.7584 26.1377 31.9696 24.6677 32C22.5677 32 21.0087 31.424 20.0175 30.2928C18.3439 30.5779 16.6353 30.5876 14.9585 30.3216C13.9658 31.4352 12.4131 32 10.3322 32C8.96837 31.9726 7.61208 31.7885 6.2898 31.4512L5.93821 31.3552L5.5039 31.2272C4.87297 31.0348 4.24943 30.8186 3.63461 30.5792C1.66669 29.8064 0.651702 29.0912 0.246026 28.1777C-0.0498784 27.5377 0.00580246 26.7905 0.393978 26.2001C0.210714 25.9304 0.0874248 25.6242 0.0325166 25.3022C-0.0223917 24.9803 -0.00762786 24.6502 0.0758015 24.3345C0.185573 23.8977 0.435341 23.5089 0.786927 23.2241C0.527311 22.7948 0.417626 22.2907 0.475264 21.7916C0.532903 21.2925 0.754566 20.827 1.1051 20.469C1.47578 20.0722 1.99123 19.8434 2.56395 19.8178L2.68803 19.8162C2.22251 18.3415 1.9864 16.8034 1.98805 15.2562C1.98805 9.80511 4.92641 4.76998 9.69429 2.04362C12.044 0.704105 14.6988 0 17.3997 0C20.1007 0 22.7571 0.704105 25.1068 2.04362ZM5.07277 20.413C5.27163 21.5121 8.82249 24.1729 8.47727 24.7441C8.175 25.2481 7.21092 24.3617 6.96911 24.1265L6.90388 24.0625L6.63661 23.8273C5.74413 23.0609 2.97121 20.7874 2.27759 21.5361C1.59351 22.2721 2.4669 22.9105 3.95597 23.8081L5.20322 24.5553L5.41959 24.6881C7.08206 25.7169 7.20138 26.0321 6.93093 26.4689C6.63184 26.9409 2.04691 23.1089 1.61737 24.7361C1.18783 26.3537 6.29775 26.8225 5.98276 27.9457C5.66458 29.0656 2.3794 25.8273 1.71123 27.0865C1.03511 28.3505 6.34548 29.8352 6.38843 29.8464L6.64298 29.9104L6.92138 29.9776C8.8734 30.432 12.5929 31.0176 13.977 29.0112C15.0476 27.4545 14.9951 26.2769 13.5824 24.8353L13.4917 24.7441C11.9884 23.2593 11.1134 21.0834 11.1134 21.0834L11.0863 20.9906L11.0465 20.8754C10.9161 20.5234 10.5947 19.853 10.0443 19.941C9.31248 20.0578 8.77476 21.8769 10.2352 23.0337L10.3147 23.0945C11.869 24.2481 10.0045 25.0305 9.40316 23.9489L9.31089 23.7825L9.08339 23.3825C8.34681 22.1041 7.04388 20.005 6.31684 19.5474C5.47049 19.0162 4.87391 19.3106 5.07277 20.413ZM28.6847 19.5474C27.8367 20.0834 26.1981 22.8657 25.5984 23.9489C25.4952 24.1399 25.3318 24.2909 25.134 24.3784C24.9362 24.4658 24.7151 24.4847 24.5054 24.4321C24.4012 24.4025 24.3053 24.3488 24.2254 24.2753C24.1955 24.2468 24.1693 24.2145 24.1475 24.1793L24.1252 24.1345L24.1125 24.1025L24.1014 24.0721L24.0966 24.0513L24.0918 24.0241C24.0876 23.9987 24.0854 23.973 24.0854 23.9473C24.0854 23.7553 24.1984 23.5217 24.4832 23.2641C24.5245 23.2257 24.5691 23.1889 24.6168 23.1521L24.6916 23.0945C24.7266 23.0689 24.76 23.0433 24.7918 23.0161C26.1965 21.8801 25.7034 20.1202 25.0002 19.949L24.9509 19.9394L24.8618 19.933C24.8287 19.9334 24.7957 19.9366 24.7632 19.9426L24.7186 19.9506L24.6518 19.973L24.5898 20.0002L24.5452 20.0242L24.5007 20.0546L24.4434 20.0978L24.4068 20.1298C24.1316 20.3826 23.9725 20.8146 23.9136 20.997L23.8882 21.0834C23.8882 21.0834 23.045 23.1777 21.5989 24.6577L21.513 24.7441C20.9323 25.3169 20.5648 25.8481 20.3962 26.3729C20.1687 27.0721 20.2912 27.7617 20.7303 28.5376C20.8178 28.6928 20.9164 28.8496 21.0278 29.0112C22.4309 31.0512 26.249 30.4128 28.1772 29.9552L28.6322 29.8432L29.0299 29.7248C29.469 29.5904 30.2008 29.352 30.939 29.0528L31.2381 28.9296L31.3415 28.8848L31.4433 28.84L31.6406 28.7504L31.7694 28.6896C32.611 28.2865 33.303 27.8209 33.3508 27.3665L33.3523 27.3089C33.351 27.231 33.3308 27.1547 33.2935 27.0865C33.1439 26.8049 32.8624 26.7473 32.5124 26.8177L32.4408 26.8337C32.3708 26.8497 32.2976 26.8721 32.2244 26.8977L32.0701 26.9537L31.9842 26.9889C31.0949 27.3569 30.0147 28.1169 29.4276 28.1809H29.4372C29.4108 28.1839 29.3842 28.1855 29.3576 28.1857H29.3195L29.2813 28.1809L29.2447 28.1729C29.1365 28.1473 29.0601 28.0769 29.022 27.9457C29.0071 27.8936 29.0044 27.8389 29.014 27.7857C29.1126 27.2337 30.5381 26.8337 31.7392 26.3297L31.8442 26.2849C32.6842 25.9265 33.3873 25.5121 33.4112 24.9537V24.8897C33.4083 24.8367 33.3997 24.7841 33.3858 24.7329C33.3094 24.4449 33.1074 24.3313 32.813 24.3313C31.5642 24.3313 28.7563 26.5073 28.1677 26.5073C28.1279 26.5073 28.0913 26.4961 28.0754 26.4689C28.0472 26.4241 28.0227 26.377 28.0022 26.3281C27.8431 25.9473 28.1104 25.5889 29.6885 24.6225L30.021 24.4209C30.8769 23.9089 31.6278 23.4801 32.1544 23.0913C32.6158 22.7521 32.9101 22.4417 32.9546 22.1313L32.9594 22.0865C32.9721 21.9057 32.8989 21.7233 32.7255 21.5361C32.6935 21.5013 32.6558 21.4721 32.6142 21.4497L32.5601 21.4257L32.5394 21.4177C32.4727 21.3958 32.4028 21.385 32.3326 21.3858C32.0749 21.3858 31.7456 21.4977 31.386 21.6737C30.3726 22.1745 29.1095 23.1969 28.4811 23.7297L28.0849 24.0737L28.0324 24.1265C27.9052 24.2513 27.5743 24.5585 27.2481 24.7441L27.1352 24.8033L27.0699 24.8337C27.0078 24.8606 26.9426 24.8799 26.8759 24.8913H26.8838C26.8675 24.8936 26.851 24.8952 26.8345 24.8961L26.8504 24.8945L26.8297 24.8961C26.704 24.9041 26.599 24.8625 26.5274 24.7441C26.5098 24.7125 26.5021 24.6762 26.5052 24.6401C26.5481 23.8961 29.741 21.4546 29.9288 20.413L29.9431 20.3362C30.1022 19.2962 29.512 19.029 28.6847 19.5474ZM17.4021 1.57483C9.76907 1.57483 3.58052 7.70114 3.58052 15.2546C3.58052 16.3618 3.71257 17.437 3.96233 18.4674L3.97506 18.453C4.37596 17.9762 4.94868 17.717 5.59299 17.717C6.15776 17.7298 6.70502 17.9042 7.17274 18.2162C7.52274 18.4402 7.9125 18.8306 8.31022 19.3266C8.72545 18.7314 9.40794 18.3698 10.1397 18.3586C11.4952 18.3586 12.3145 19.5234 12.6247 20.5714L12.6995 20.7394L12.7949 20.9426C13.1004 21.5761 13.7415 22.7649 14.6133 23.6305C16.2997 25.2945 16.7196 27.0145 15.886 28.856C16.9567 28.9722 18.037 28.9647 19.106 28.8336C18.3026 27.0417 18.6923 25.3617 20.2832 23.7361L20.3882 23.6305C21.4939 22.5361 22.2289 20.9266 22.38 20.5714C22.6902 19.5234 23.5064 18.3586 24.8618 18.3586C25.5936 18.3698 26.2761 18.7314 26.6913 19.3266C27.089 18.8306 27.4788 18.4418 27.8336 18.2162C28.3012 17.9037 28.8472 17.7306 29.4085 17.717C29.9765 17.717 30.4935 17.9186 30.8801 18.293C31.1028 17.317 31.2222 16.301 31.2222 15.2562C31.2222 7.70114 25.0336 1.57483 17.4021 1.57483ZM20.3564 15.8562L21.0548 15.517C21.9346 15.0946 22.4707 14.9042 22.4707 15.7602C22.4707 17.509 21.2441 20.893 17.4515 20.9794H17.1587C13.4599 20.8962 12.2015 17.6834 12.1379 15.8994L12.1363 15.7602C12.1363 13.9891 14.4463 16.6978 17.3067 16.6978C18.4458 16.6978 19.5005 16.2626 20.3564 15.8562ZM26.747 10.8275C27.4629 10.8275 28.0404 11.4003 28.0404 12.1075C28.0404 12.8131 27.4613 13.3875 26.747 13.3875C26.5786 13.3887 26.4116 13.3566 26.2556 13.293C26.0995 13.2293 25.9575 13.1354 25.8375 13.0166C25.7175 12.8977 25.622 12.7562 25.5564 12.6003C25.4908 12.4443 25.4564 12.2768 25.4552 12.1075C25.4552 11.4003 26.0343 10.8275 26.747 10.8275ZM8.25454 10.8275C8.96726 10.8275 9.54634 11.4003 9.54634 12.1075C9.54634 12.8131 8.96726 13.3875 8.25454 13.3875C8.08602 13.3889 7.91886 13.357 7.76263 13.2934C7.60639 13.2299 7.46414 13.136 7.34402 13.0171C7.22389 12.8982 7.12825 12.7567 7.06255 12.6006C6.99686 12.4445 6.9624 12.277 6.96115 12.1075C6.96115 11.4003 7.54024 10.8275 8.25454 10.8275ZM20.6475 9.48192C21.1566 8.86753 21.9934 8.61793 22.7634 8.85153C23.5318 9.08512 24.0839 9.75391 24.1602 10.5475C24.2366 11.3395 23.8229 12.0995 23.1118 12.4723C22.5996 12.7411 22.4007 11.7091 21.8916 11.5363L21.8948 11.5315C21.4382 11.3747 20.6666 12.1107 20.4232 11.6579C20.239 11.3146 20.1617 10.9235 20.2014 10.5354C20.2411 10.1473 20.3976 9.78026 20.6475 9.48192ZM13.7701 9.48192C14.2824 10.0963 14.3699 10.9539 13.9929 11.6579C13.7511 12.1107 12.9747 11.3747 12.5213 11.5315L12.5261 11.5363C12.3543 11.5939 12.2174 11.7507 12.0918 11.9203L11.904 12.1843C11.729 12.4243 11.554 12.6035 11.3043 12.4723C10.9587 12.2928 10.6744 12.0134 10.4878 11.6702C10.3013 11.3269 10.2211 10.9354 10.2575 10.5459C10.3338 9.75391 10.8859 9.08512 11.6543 8.85153C12.0296 8.73729 12.43 8.73611 12.806 8.84814C13.1821 8.96017 13.5172 9.1805 13.7701 9.48192Z" fill="#5F3920"/>
</svg>
