<svg width="23" height="30" viewBox="0 0 23 30" fill="none" xmlns="http://www.w3.org/2000/svg">
<path fill-rule="evenodd" clip-rule="evenodd" d="M5.87354 0.120285C6.16154 0.233618 6.42154 0.420285 6.65754 0.666951C7.05087 1.07495 7.38288 1.65895 7.63621 2.35095C7.89088 3.04695 8.05621 3.81762 8.11887 4.59095C8.95836 4.11602 9.89001 3.82684 10.8509 3.74295L10.9189 3.73762C12.0789 3.64428 13.2255 3.85362 14.2255 4.36962C14.3602 4.44028 14.4922 4.51629 14.6215 4.59629C14.6882 3.83762 14.8509 3.08428 15.1015 2.40428C15.3549 1.71095 15.6869 1.12828 16.0789 0.718951C16.2979 0.481971 16.5659 0.295442 16.8642 0.172285C17.2069 0.0389513 17.5709 0.0149514 17.9255 0.116285C18.4602 0.268285 18.9189 0.606951 19.2802 1.09895C19.6109 1.54828 19.8589 2.12428 20.0282 2.81495C20.3349 4.06029 20.3882 5.69895 20.1815 7.67495L20.2522 7.72829L20.2869 7.75362C21.2962 8.52162 21.9989 9.61629 22.3709 10.887C22.9509 12.8696 22.6589 15.0936 21.6589 16.3376L21.6349 16.3656L21.6375 16.3696C22.1935 17.3856 22.5309 18.459 22.6029 19.5696L22.6055 19.6096C22.6909 21.0296 22.3389 22.459 21.5202 23.863L21.5109 23.8763L21.5242 23.9083C22.1535 25.451 22.3509 27.0043 22.1082 28.5563L22.1002 28.6083C22.0626 28.835 21.9366 29.0375 21.7499 29.1715C21.5632 29.3055 21.331 29.3599 21.1042 29.323C20.9919 29.3054 20.8842 29.2659 20.7872 29.2067C20.6901 29.1474 20.6058 29.0696 20.5389 28.9777C20.472 28.8858 20.4239 28.7816 20.3974 28.6711C20.3708 28.5605 20.3664 28.4459 20.3842 28.3336C20.6069 26.9563 20.3975 25.575 19.7442 24.1696C19.6833 24.0391 19.6562 23.8952 19.6655 23.7515C19.6748 23.6077 19.7202 23.4685 19.7975 23.347L19.8029 23.339C20.6082 22.107 20.9415 20.899 20.8695 19.7123C20.8082 18.6736 20.4362 17.6536 19.8029 16.6816C19.6797 16.4927 19.6358 16.2628 19.6807 16.0418C19.7256 15.8207 19.8557 15.6262 20.0429 15.5003L20.0549 15.4923C20.3789 15.2803 20.6775 14.739 20.8282 13.999C20.9945 13.1239 20.951 12.222 20.7015 11.367C20.4282 10.4336 19.9282 9.65495 19.2282 9.12295C18.4349 8.51762 17.3842 8.22562 16.0549 8.30962C15.881 8.32092 15.7078 8.27983 15.5576 8.19164C15.4074 8.10346 15.2871 7.97224 15.2122 7.81495C14.7935 6.92829 14.1829 6.29362 13.4215 5.90029C12.6906 5.53548 11.8723 5.38216 11.0589 5.45762C9.39887 5.58962 7.93487 6.52562 7.49887 7.70562C7.43719 7.87169 7.32625 8.01496 7.18089 8.11624C7.03553 8.21751 6.8627 8.27196 6.68554 8.27229C5.26287 8.27495 4.16154 8.60829 3.35621 9.20962C2.66021 9.72962 2.18554 10.4563 1.93488 11.327C1.70805 12.1465 1.67699 13.0079 1.84421 13.8416C1.99354 14.5856 2.28554 15.2016 2.62021 15.5336L2.63087 15.543C2.91354 15.819 2.97354 16.2496 2.77621 16.5896C2.29621 17.419 1.93754 18.655 1.87887 19.843C1.81221 21.2003 2.12687 22.379 2.83754 23.2243L2.85888 23.2496C2.96612 23.3746 3.0351 23.5278 3.05756 23.691C3.08003 23.8541 3.05502 24.0203 2.98554 24.1696C2.21754 25.8176 1.98154 27.1723 2.23621 28.239C2.28198 28.4608 2.23939 28.6917 2.1175 28.8825C1.99561 29.0734 1.80404 29.2092 1.58356 29.261C1.36308 29.3128 1.13109 29.2764 0.93698 29.1598C0.742866 29.0431 0.601945 28.8553 0.544208 28.6363C0.220208 27.279 0.440208 25.7243 1.17488 23.9723L1.19354 23.9256L1.18288 23.9096C0.821798 23.3763 0.552314 22.7864 0.385542 22.1643L0.378875 22.139C0.176491 21.3628 0.0968611 20.5597 0.142875 19.759C0.201542 18.5456 0.513542 17.303 0.972209 16.3056L0.988209 16.271L0.985542 16.2683C0.594875 15.711 0.305542 14.9976 0.145542 14.2083L0.138875 14.1763C-0.0815709 13.0753 -0.0390864 11.9378 0.262875 10.8563C0.612208 9.63629 1.29887 8.58829 2.31087 7.83095C2.39087 7.77095 2.47488 7.71095 2.55888 7.65495C2.34688 5.66429 2.40021 4.01495 2.70821 2.76162C2.87754 2.07095 3.12687 1.49495 3.45754 1.04562C3.81754 0.554951 4.27621 0.216285 4.81087 0.0629515C5.16554 -0.0383819 5.53088 -0.0157153 5.87354 0.118951V0.120285ZM11.3615 12.2403C12.6095 12.2403 13.7615 12.6576 14.6229 13.3803C15.4629 14.083 15.9629 15.027 15.9629 15.967C15.9629 17.151 15.4215 18.0736 14.4522 18.663C13.6255 19.163 12.5175 19.4056 11.2482 19.4056C9.90287 19.4056 8.75354 19.0603 7.92421 18.427C7.10154 17.8003 6.64021 16.9203 6.64021 15.967C6.64021 15.0243 7.17088 14.0776 8.04821 13.3723C8.93887 12.6563 10.1149 12.2403 11.3615 12.2403ZM11.3615 13.435C10.4365 13.4269 9.53604 13.7324 8.80687 14.3016C8.19221 14.795 7.84421 15.415 7.84421 15.9683C7.84421 16.539 8.12421 17.0736 8.65754 17.4803C9.26421 17.943 10.1562 18.211 11.2482 18.211C12.3135 18.211 13.2122 18.015 13.8242 17.643C14.4415 17.2696 14.7575 16.7283 14.7575 15.967C14.7575 15.403 14.4295 14.7803 13.8469 14.2923C13.2015 13.7523 12.3269 13.435 11.3615 13.435ZM12.2442 15.0483L12.2495 15.0536C12.4095 15.255 12.3762 15.547 12.1749 15.707L11.7855 16.0136V16.6083C11.7848 16.7407 11.7317 16.8674 11.6377 16.9606C11.5437 17.0538 11.4166 17.106 11.2842 17.1056C11.1518 17.106 11.0247 17.0538 10.9307 16.9606C10.8368 16.8674 10.7836 16.7407 10.7829 16.6083V15.995L10.4215 15.7043C10.3739 15.6661 10.3342 15.6188 10.3049 15.5652C10.2756 15.5117 10.2572 15.4528 10.2508 15.3921C10.2443 15.3313 10.25 15.2699 10.2674 15.2114C10.2848 15.1528 10.3136 15.0983 10.3522 15.051C10.4309 14.9551 10.5442 14.8943 10.6676 14.8815C10.7909 14.8688 10.9143 14.9052 11.0109 14.983L11.2975 15.2123L11.5909 14.9803C11.6872 14.9042 11.8093 14.8688 11.9314 14.8815C12.0534 14.8942 12.1657 14.954 12.2442 15.0483ZM5.52421 12.4896C6.16154 12.4896 6.68021 13.0096 6.68021 13.651C6.68056 13.9584 6.55887 14.2534 6.34187 14.4711C6.12486 14.6889 5.8303 14.8116 5.52288 14.8123C5.21592 14.8112 4.92189 14.6885 4.70522 14.4711C4.48854 14.2537 4.36687 13.9592 4.36688 13.6523C4.36617 13.3449 4.48752 13.0497 4.70427 12.8317C4.92103 12.6137 5.21679 12.4907 5.52421 12.4896ZM17.1322 12.4896C17.7722 12.4896 18.2895 13.0096 18.2895 13.651C18.2899 13.9584 18.1682 14.2534 17.9512 14.4711C17.7342 14.6889 17.4396 14.8116 17.1322 14.8123C16.8253 14.8112 16.5312 14.6885 16.3145 14.4711C16.0979 14.2537 15.9762 13.9592 15.9762 13.6523C15.9755 13.3449 16.0969 13.0497 16.3136 12.8317C16.5304 12.6137 16.8248 12.4907 17.1322 12.4896ZM5.25354 1.73362L5.24954 1.73628C5.09508 1.80345 4.96317 1.9136 4.86954 2.05362L4.86287 2.06162C4.67887 2.31362 4.51887 2.68428 4.39887 3.17095C4.17221 4.09362 4.11088 5.34562 4.23354 6.88028C4.80688 6.70962 5.43221 6.60295 6.10554 6.56428L6.11887 6.56295L6.14421 6.51762C6.20554 6.40829 6.27087 6.30295 6.34154 6.19895C6.50554 5.17095 6.37088 3.94295 6.00421 2.94028C5.82554 2.45495 5.60821 2.07362 5.40021 1.85628C5.35727 1.8111 5.30942 1.77085 5.25754 1.73628L5.25354 1.73362ZM17.4855 1.78695L17.4829 1.78828C17.431 1.82285 17.3831 1.8631 17.3402 1.90828C17.1322 2.12562 16.9135 2.50828 16.7362 2.99362C16.3495 4.05228 16.2202 5.36162 16.4295 6.42295L16.5069 6.55229L16.5175 6.57095H16.5575C17.2193 6.57112 17.8775 6.66632 18.5122 6.85362C18.6269 5.35495 18.5629 4.12962 18.3415 3.22428C18.2215 2.73762 18.0615 2.36695 17.8762 2.11495L17.8709 2.10695C17.7774 1.96644 17.6455 1.85582 17.4909 1.78828H17.4855V1.78695Z" fill="#5F3920"/>
</svg>
