<svg width="28" height="32" viewBox="0 0 28 32" fill="none" xmlns="http://www.w3.org/2000/svg">
<path d="M21.7925 29.4139L21.1545 11.8223L19.9989 7.18436L27.7119 8.00089V29.2808L23.0003 32L21.7925 29.4139Z" fill="#A77F65"/>
<path d="M27.7114 7.99964L22.9998 10.7208L13.2768 8.58796L1.8961 13.2217L0 7.99964L6.92672 3.99982L13.8555 0L20.7825 3.99982L27.7114 7.99964Z" fill="#C5A996"/>
<path d="M0.000335693 7.99963L4.71193 10.7208L7.44315 18.8434L16.665 26.222L13.8561 31.9985L6.92727 27.9985L0.000335693 23.9987V7.99942" fill="#E1CFC4"/>
<path d="M16.9797 21.9539L13.8561 26.5588V31.999L18.2884 29.4416L20.5722 26.0314" fill="#A77F65"/>
<path d="M13.858 21.1203L9.42374 13.443L10.3788 10.8984L14.0098 9.13797L18.2884 13.4431L13.858 21.1203Z" fill="#C5A996"/>
<path d="M9.42374 13.4423L13.8561 15.9997V21.1186L9.75675 21.295L7.27707 18.1287L9.42374 13.4423" fill="#E1CFC4"/>
<path d="M13.8561 15.9993L18.2884 13.4421L21.305 18.4649L17.6545 21.481L13.8561 21.1184V15.9993Z" fill="#A77F65"/>
<path d="M18.2884 29.4412L23 31.9988V10.721L18.427 8.08172L13.8561 5.44247L9.28306 8.08172L4.71214 10.721V21.2799L9.28306 23.9191L13.8561 26.5586L18.2884 23.9989V29.4412ZM18.2884 18.5587L13.8561 21.1182L9.42374 18.5587V13.4419L13.8561 10.8824L18.2884 13.4419V18.5587Z" fill="#5F3920"/>
<path d="M13.858 26.5605V21.1195L9.44873 18.5818V24.0138L13.858 26.5605Z" fill="url(#paint0_linear_7_103)"/>
<defs>
<linearGradient id="paint0_linear_7_103" x1="369.075" y1="376.361" x2="-70.2957" y2="376.361" gradientUnits="userSpaceOnUse">
<stop stop-color="#FF3364"/>
<stop offset="0.0001" stop-color="#C91540" stop-opacity="0"/>
</linearGradient>
</defs>
</svg>
